<!DOCTYPE svg PUBLIC "-//W3C//DTD SVG 20010904//EN" "http://www.w3.org/TR/2001/REC-SVG-20010904/DTD/svg10.dtd">
<svg version="1.0" xmlns="http://www.w3.org/2000/svg" width="996px" height="931px" viewBox="0 0 9960 9310" preserveAspectRatio="xMidYMid meet">
<g id="layer101" fill="#000000" stroke="none">
 <path d="M4735 8184 c-37 -9 -88 -13 -132 -10 -99 6 -262 -19 -588 -89 -221 -48 -275 -65 -503 -156 -334 -134 -681 -307 -806 -403 -27 -21 -68 -46 -90 -57 -43 -20 -186 -125 -296 -217 -88 -74 -410 -390 -489 -481 -130 -148 -387 -544 -500 -768 -23 -46 -46 -83 -51 -83 -23 0 -141 -276 -215 -500 -85 -261 -166 -630 -144 -656 8 -10 8 -36 0 -96 -55 -421 -25 -927 80 -1368 99 -418 271 -835 475 -1152 24 -37 41 -74 38 -81 -2 -7 30 -63 72 -123 221 -317 528 -638 839 -880 137 -107 249 -182 263 -177 7 3 36 -11 65 -30 473 -311 1096 -528 1747 -609 142 -18 767 -18 910 0 495 61 926 187 1355 397 186 92 279 142 385 210 40 26 72 40 75 34 8 -12 101 52 133 92 13 16 63 59 110 96 234 180 456 393 631 604 57 68 120 140 142 159 54 50 238 327 232 351 -3 11 19 62 57 128 216 385 373 858 452 1361 20 131 23 180 23 505 0 290 -4 382 -17 473 -13 83 -15 119 -7 134 12 23 3 96 -16 118 -7 8 -15 43 -19 78 -3 34 -12 75 -19 90 -8 15 -24 70 -37 122 -29 121 -90 311 -146 454 -24 61 -44 122 -44 134 0 13 -13 36 -28 50 -16 15 -66 101 -113 192 -123 240 -269 466 -428 665 -31 39 -75 95 -98 125 -50 65 -250 265 -379 376 -110 96 -257 209 -384 295 -95 65 -528 309 -548 309 -5 0 -50 18 -99 41 -108 50 -209 88 -328 125 -49 16 -97 33 -105 40 -31 25 -450 122 -660 153 -228 34 -697 49 -795 25z m700 -143 c356 -48 777 -154 980 -246 30 -14 56 -25 59 -25 3 0 44 -18 93 -41 289 -134 395 -193 528 -294 44 -33 99 -73 123 -88 34 -22 41 -31 33 -41 -9 -10 -3 -20 23 -40 21 -15 37 -22 41 -16 10 16 40 -5 64 -46 19 -32 50 -43 43 -15 -6 28 31 4 129 -83 58 -51 143 -133 190 -181 46 -48 109 -112 139 -141 72 -69 310 -372 310 -395 0 -3 -17 -9 -37 -12 -33 -6 -40 -3 -64 26 -20 24 -30 29 -39 21 -8 -8 -5 -19 13 -40 13 -16 36 -49 51 -73 19 -29 31 -40 38 -33 5 5 8 18 6 28 -2 13 6 25 25 37 28 17 29 17 47 -5 32 -39 136 -210 216 -355 116 -208 196 -398 270 -637 30 -99 32 -110 17 -121 -10 -8 -14 -20 -10 -33 3 -12 2 -24 -2 -26 -4 -3 -5 -31 -2 -63 9 -133 12 -247 11 -403 -3 -349 -4 -389 -17 -379 -18 15 -25 -6 -12 -38 10 -25 12 -26 23 -10 9 14 13 -3 22 -90 6 -60 15 -121 19 -138 8 -30 8 -30 -13 -11 -20 17 -22 17 -28 2 -9 -24 15 -50 33 -35 18 16 24 8 28 -38 2 -21 6 -51 10 -68 3 -16 8 -55 10 -85 9 -104 17 -155 27 -167 16 -20 -11 -154 -96 -470 -117 -437 -277 -777 -545 -1158 -468 -667 -1151 -1183 -1920 -1449 -109 -38 -405 -122 -481 -136 -25 -5 -65 -13 -90 -19 -25 -5 -64 -12 -85 -15 -22 -3 -65 -10 -95 -16 -107 -19 -397 -40 -560 -40 -784 0 -1556 232 -2205 663 -247 164 -358 254 -593 482 -301 291 -548 630 -740 1011 -337 670 -470 1399 -388 2129 2 17 7 61 11 100 4 38 9 73 12 78 2 4 7 22 9 40 3 18 7 41 8 52 2 11 7 38 11 60 3 22 11 54 16 70 5 17 20 75 34 130 57 230 107 373 220 627 85 191 264 498 387 665 88 119 172 223 179 223 5 0 15 12 23 28 14 27 211 231 316 328 87 79 244 210 310 258 638 460 1298 708 2070 775 172 16 621 5 795 -18z"/>
 <path d="M4745 7314 c-16 -2 -79 -9 -140 -14 -260 -25 -531 -90 -808 -192 -76 -28 -161 -66 -189 -84 -28 -18 -65 -36 -82 -39 -70 -15 -379 -203 -410 -249 -8 -13 -35 -34 -61 -46 -74 -36 -195 -132 -284 -226 -46 -49 -114 -120 -151 -159 -37 -38 -88 -99 -113 -135 -25 -36 -61 -77 -80 -92 -109 -86 -325 -447 -450 -753 -99 -241 -164 -550 -194 -912 -16 -201 -16 -223 0 -410 46 -527 161 -911 395 -1323 61 -106 77 -144 77 -175 0 -32 5 -42 23 -50 12 -5 22 -17 22 -26 0 -22 11 -31 25 -19 10 8 22 -1 46 -32 246 -317 555 -600 894 -816 11 -6 27 -15 35 -19 8 -4 37 -20 64 -35 348 -205 798 -349 1246 -399 147 -17 531 -17 680 -1 477 52 920 202 1347 456 112 67 306 203 358 252 17 16 61 55 100 89 99 86 275 263 310 313 17 23 69 92 116 154 336 442 531 943 599 1534 25 224 25 370 0 597 -60 542 -225 1000 -511 1422 -251 371 -598 702 -969 925 -420 252 -834 394 -1315 451 -92 11 -526 21 -580 13z m660 -124 c504 -75 976 -268 1396 -572 236 -170 479 -413 655 -654 456 -626 654 -1405 549 -2164 -67 -487 -261 -960 -556 -1358 -116 -157 -128 -170 -280 -328 -276 -289 -623 -522 -1027 -690 -207 -86 -497 -170 -656 -189 -22 -3 -52 -7 -66 -10 -173 -35 -660 -42 -865 -11 -467 69 -870 214 -1246 446 -791 489 -1341 1366 -1419 2265 -22 253 0 683 43 855 4 14 9 36 11 50 5 28 7 32 35 140 89 339 235 648 456 969 113 163 339 416 450 502 28 21 91 72 140 114 148 126 326 236 590 367 273 136 627 238 960 277 50 6 101 13 115 15 14 2 147 3 295 2 218 -3 299 -7 420 -26z"/>
 <path d="M6345 6810 c-11 -4 -25 -5 -32 -3 -17 7 -55 -16 -47 -28 3 -6 17 -8 30 -5 13 4 33 1 44 -6 16 -10 22 -10 35 3 21 21 -1 50 -30 39z"/>
 <path d="M6215 6770 c-3 -5 -4 -11 -1 -11 16 -4 26 -7 31 -9 3 -1 9 -3 14 -4 20 -2 24 -17 9 -33 -17 -19 -33 -77 -29 -105 4 -29 -19 -30 -44 0 -32 38 -93 55 -166 47 -54 -6 -58 -5 -74 19 -26 39 -63 34 -110 -14 -44 -45 -58 -46 -65 -4 -5 26 -9 29 -47 32 -34 2 -45 -1 -55 -17 -16 -26 -28 -27 -28 -3 0 52 -56 55 -110 6 l-40 -36 -14 33 c-7 19 -16 42 -19 52 -14 38 -39 32 -86 -21 l-46 -52 -115 -1 c-63 0 -185 -4 -270 -8 -148 -8 -156 -7 -185 13 -27 19 -41 21 -145 18 -293 -7 -368 -4 -393 17 -16 12 -21 9 -18 -11 0 -5 -35 -8 -79 -8 -67 0 -82 3 -98 20 -18 19 -44 22 -67 8 -16 -10 -118 -12 -138 -3 -10 4 -21 5 -24 1 -3 -3 -11 -2 -18 4 -6 5 -92 10 -191 12 l-179 3 -48 -29 c-30 -18 -55 -42 -67 -66 -17 -34 -18 -44 -8 -99 10 -53 17 -66 47 -90 134 -103 285 -160 424 -161 44 0 57 -3 57 -15 0 -10 -10 -15 -34 -15 -41 0 -102 -21 -150 -52 -40 -25 -130 -158 -164 -243 -36 -88 -45 -213 -32 -444 6 -113 15 -220 21 -237 27 -88 -16 -274 -64 -274 -5 0 -35 16 -68 36 -55 34 -60 36 -81 22 -17 -11 -28 -35 -40 -88 -15 -64 -16 -76 -3 -101 8 -15 15 -42 15 -59 0 -47 21 -79 101 -150 88 -79 105 -89 147 -90 19 0 47 -9 63 -20 26 -19 30 -20 58 -5 17 8 43 15 58 15 42 0 76 26 63 50 -5 10 -14 58 -19 107 -6 48 -15 115 -20 148 -10 57 -9 63 20 122 29 61 30 67 26 170 -3 60 -13 160 -22 223 -19 132 -20 178 -6 310 6 52 10 106 11 119 0 13 8 40 18 60 11 20 27 52 36 72 23 48 51 59 142 59 119 0 181 -39 252 -158 37 -61 42 -124 15 -175 -9 -18 -27 -59 -38 -92 -15 -40 -26 -59 -36 -56 -8 2 -32 5 -54 6 -22 2 -59 12 -82 24 -54 27 -65 26 -102 -5 -30 -25 -31 -29 -31 -101 0 -41 -5 -84 -11 -95 -20 -37 -32 -139 -32 -273 0 -161 12 -235 57 -350 43 -113 141 -301 174 -337 24 -26 24 -28 6 -35 -30 -11 -106 -72 -132 -104 -13 -16 -40 -38 -60 -48 -21 -11 -57 -40 -82 -66 -25 -26 -62 -56 -84 -67 -36 -18 -38 -22 -33 -55 7 -40 -9 -77 -54 -133 -16 -19 -29 -39 -29 -44 0 -5 -8 -19 -19 -30 -10 -12 -26 -44 -35 -73 -10 -29 -28 -68 -42 -88 -17 -25 -22 -44 -18 -61 3 -13 -1 -42 -10 -65 -13 -32 -14 -44 -5 -55 10 -12 8 -20 -8 -42 -12 -17 -22 -50 -25 -89 -4 -45 -13 -71 -32 -96 -29 -38 -31 -54 -14 -92 9 -19 8 -34 -2 -64 -9 -29 -9 -43 -1 -59 6 -12 14 -48 17 -81 6 -50 3 -66 -15 -96 -18 -30 -21 -52 -21 -134 0 -56 5 -102 11 -108 8 -8 7 -17 -2 -31 -11 -17 -11 -32 -1 -79 11 -53 10 -60 -8 -85 -26 -35 -26 -35 10 -88 26 -39 29 -51 24 -95 -5 -44 -1 -60 34 -135 28 -60 55 -99 92 -135 28 -27 61 -68 72 -90 24 -47 57 -85 73 -85 6 0 45 -35 86 -78 104 -109 178 -163 233 -169 32 -4 52 -14 72 -34 15 -16 37 -29 49 -29 12 0 30 -8 39 -19 10 -11 37 -21 66 -25 27 -4 52 -11 55 -16 3 -6 43 -10 89 -10 79 0 123 -8 173 -32 12 -6 36 -7 55 -4 78 16 113 18 148 6 32 -10 42 -10 71 6 21 11 57 18 94 18 33 1 69 6 80 12 11 6 45 19 75 29 30 9 85 35 121 56 36 21 71 39 79 39 7 0 46 33 85 73 88 88 111 108 150 127 17 9 42 37 60 68 16 29 44 61 62 72 21 12 34 30 38 52 4 18 23 47 43 65 34 31 36 38 42 123 5 75 12 100 29 100 24 0 65 45 56 61 -12 19 -9 142 5 201 17 70 62 168 88 192 16 14 19 23 12 36 -5 10 -7 20 -4 22 9 9 11 129 2 134 -13 8 -9 62 6 92 15 29 16 183 1 235 -5 20 -2 40 10 67 12 26 15 50 11 72 -4 18 -8 51 -10 73 -5 69 -24 139 -50 192 -14 28 -26 63 -26 78 0 15 -8 46 -19 69 -10 23 -24 58 -31 79 -11 35 -58 106 -140 211 -16 21 -30 42 -30 47 0 6 -16 25 -35 45 -42 42 -44 66 -7 92 85 63 232 214 232 241 0 14 36 15 45 1 3 -5 36 -10 73 -10 77 0 122 21 147 70 12 24 22 30 48 30 17 0 50 10 73 22 l41 21 45 -21 c48 -24 107 -28 139 -12 11 6 31 29 44 50 23 37 29 40 71 40 41 0 50 5 90 45 32 33 51 45 73 45 42 0 87 55 82 98 -4 24 27 59 56 65 80 16 135 122 133 256 -1 28 8 60 26 94 23 45 26 63 28 156 1 122 -12 153 -78 184 -27 13 -43 30 -57 61 -10 24 -26 49 -34 56 -10 9 -15 31 -15 73 0 58 -1 61 -49 108 -33 33 -56 49 -74 49 -48 0 -76 18 -93 60 -9 22 -25 47 -37 55 -21 15 -21 13 13 110 12 33 24 69 26 80 2 11 9 40 15 65 6 25 10 65 9 88 0 24 4 50 10 57 7 9 12 63 13 137 l2 123 -56 0 c-53 0 -56 1 -82 37 -15 21 -35 38 -45 38 -26 0 -55 -24 -57 -46 -4 -53 -17 -114 -24 -114 -8 0 -52 100 -60 136 0 4 -8 1 -17 -6 -12 -11 -15 -11 -12 0 2 8 -3 15 -9 16 -7 1 -15 3 -18 4 -3 1 -8 3 -12 4 -5 1 -13 5 -20 9 -6 4 -14 3 -18 -3z m-2135 -203 l204 -12 6 -25 c4 -16 13 -25 25 -25 12 0 21 9 25 25 l6 25 114 -4 c63 -2 118 -5 122 -7 3 -2 4 -12 1 -22 -3 -12 4 -25 22 -36 l26 -17 -40 -40 c-35 -34 -41 -45 -41 -82 0 -24 5 -48 10 -53 7 -7 4 -10 -12 -10 -20 1 -23 -3 -20 -29 2 -16 8 -34 13 -39 5 -6 9 -43 9 -83 0 -69 -1 -73 -28 -87 -43 -22 -55 -41 -38 -55 9 -8 24 -10 37 -6 21 7 22 6 15 -45 -6 -42 -4 -56 10 -71 22 -24 40 -24 71 1 33 26 63 25 139 -2 33 -12 67 -19 76 -16 12 5 18 28 23 90 4 46 12 94 17 108 11 27 25 114 32 195 2 28 10 74 17 103 11 44 11 58 0 85 -8 18 -16 47 -18 65 -5 29 -3 32 19 32 13 0 29 -5 36 -12 9 -9 16 -8 30 5 19 18 76 22 145 11 36 -6 37 -7 20 -26 -16 -18 -16 -20 1 -36 16 -16 19 -15 52 21 27 29 42 37 68 37 19 0 36 -6 39 -12 6 -19 -15 -60 -43 -85 -20 -17 -23 -24 -12 -34 22 -24 12 -30 -41 -28 -29 1 -59 -1 -65 -5 -6 -4 -16 -26 -22 -49 -5 -23 -24 -87 -41 -142 -51 -166 -79 -278 -79 -323 0 -21 14 -40 62 -82 l61 -56 -38 -37 c-21 -20 -41 -37 -45 -37 -19 0 -119 -172 -140 -241 -12 -41 -28 -87 -36 -102 -8 -16 -14 -37 -14 -48 0 -11 -8 -22 -17 -25 -59 -18 -65 -39 -19 -58 l36 -15 0 -105 c0 -69 -4 -107 -12 -112 -15 -10 -47 31 -41 54 5 20 -20 47 -35 38 -5 -3 -12 -19 -15 -35 -6 -28 -10 -30 -49 -30 -112 0 -208 -32 -208 -69 0 -10 -5 -23 -11 -29 -6 -6 -13 -49 -16 -96 l-6 -84 36 -39 35 -39 119 -3 c137 -4 187 -21 230 -81 15 -20 38 -48 52 -63 13 -15 23 -29 20 -32 -2 -2 -40 1 -84 5 -196 21 -199 22 -216 67 -9 22 -13 24 -52 17 -23 -3 -58 -8 -77 -9 -19 -1 -50 -12 -67 -26 -39 -29 -54 -19 -31 20 14 25 15 30 2 41 -12 10 -19 8 -37 -10 -30 -28 -38 -26 -64 12 -87 128 -170 347 -145 385 5 8 25 17 43 21 53 11 44 35 -14 39 l-47 3 2 167 3 167 35 0 c28 0 35 4 35 20 0 12 -11 25 -28 33 -25 12 -27 17 -23 50 13 92 29 141 60 191 31 50 32 56 24 104 -6 32 -6 58 0 72 6 13 6 28 1 38 -17 29 7 57 43 54 45 -3 50 26 8 48 -44 23 -56 54 -35 94 9 18 27 36 41 41 30 12 27 34 -4 38 -27 4 -29 45 -7 110 14 38 13 46 0 73 -28 52 -85 69 -240 69 l-134 0 -30 37 c-24 29 -33 34 -44 25 -8 -7 -12 -23 -10 -37 5 -23 3 -24 -33 -18 -22 3 -46 15 -56 27 -16 19 -17 20 -36 3 -10 -9 -25 -17 -33 -17 -16 1 -107 31 -159 53 -46 20 -134 101 -128 119 6 17 134 23 164 7 18 -9 27 -8 45 5 28 19 140 20 449 3z m2058 -57 c6 -35 -11 -43 -42 -19 -26 20 -28 21 -47 3 -17 -16 -18 -19 -4 -40 14 -22 13 -24 -8 -35 -24 -14 -91 -30 -121 -30 -34 0 -39 17 -21 66 28 72 48 82 152 80 83 -2 88 -3 91 -25z m-1332 -144 c-3 -28 -10 -78 -16 -111 -6 -33 -15 -98 -20 -145 -11 -88 -29 -120 -69 -120 -35 0 -37 12 -31 202 l5 187 45 46 45 46 24 -27 c20 -24 22 -35 17 -78z m1709 91 c15 -12 17 -22 12 -63 -9 -67 -23 -142 -35 -184 -34 -117 -58 -148 -89 -117 -15 14 -15 22 -5 50 7 18 12 42 12 53 0 11 9 44 20 74 11 30 20 71 20 91 0 39 25 109 38 109 5 0 16 -6 27 -13z m-1037 -81 c2 -38 0 -76 -4 -85 -4 -9 -7 -59 -6 -112 0 -53 -3 -101 -7 -107 -3 -6 -18 -13 -32 -17 -21 -5 -31 -1 -46 19 -22 27 -22 68 -3 216 21 158 22 162 63 158 l32 -3 3 -69z m290 66 c10 -7 10 -25 2 -88 -6 -43 -14 -113 -18 -154 -4 -41 -11 -81 -15 -87 -22 -34 -65 9 -52 51 7 22 21 104 29 171 13 112 21 127 54 107z m576 -52 c-2 -52 -45 -244 -58 -257 -3 -3 -13 -3 -22 1 -16 6 -16 9 1 81 5 22 33 153 42 198 4 19 11 27 22 25 12 -3 16 -14 15 -48z m-164 -99 c-36 -144 -42 -158 -73 -173 -27 -13 -36 -12 -83 5 l-53 19 -36 -21 c-20 -11 -45 -21 -56 -21 -37 0 -52 86 -24 140 19 37 43 50 94 50 22 0 43 5 46 10 3 6 15 10 25 10 31 0 113 31 140 52 l25 20 3 -22 c2 -13 -1 -44 -8 -69z m-1985 -57 c17 -7 21 -69 6 -93 -8 -12 -16 -9 -44 16 -19 17 -58 41 -86 53 -28 13 -51 28 -51 33 0 10 145 2 175 -9z m1085 -3 c5 -11 10 -52 10 -92 0 -61 -4 -77 -22 -96 -15 -17 -22 -36 -22 -72 -1 -43 -6 -55 -36 -86 -39 -40 -50 -43 -75 -15 -17 18 -17 24 0 80 1 3 7 25 14 50 18 59 59 177 77 218 17 36 38 41 54 13z m310 -44 c-5 -17 -10 -41 -13 -52 -3 -18 -5 -18 -16 6 -11 22 -10 31 3 58 21 40 37 32 26 -12z m-1630 -65 c85 -17 157 -59 181 -105 10 -18 8 -18 -21 7 -31 26 -74 48 -147 76 -49 18 -179 9 -228 -16 -67 -35 -133 -153 -157 -284 -13 -70 -16 -227 -5 -260 5 -14 10 -50 13 -80 2 -30 8 -80 14 -110 11 -56 15 -90 26 -192 5 -48 2 -66 -21 -115 -14 -32 -41 -70 -60 -85 -43 -36 -47 -63 -17 -117 24 -43 62 -152 62 -178 0 -7 -4 -13 -9 -13 -5 0 -12 25 -16 55 -10 81 -30 88 -89 28 l-46 -47 17 47 c19 53 12 70 -31 70 -22 0 -24 2 -15 19 13 24 -6 48 -54 72 l-32 16 41 0 c22 0 45 -5 50 -10 25 -25 104 33 140 102 22 42 37 129 36 213 0 84 -18 231 -33 264 -14 34 -2 312 17 376 35 123 150 264 216 266 13 0 32 4 43 9 21 10 47 8 125 -8z m1700 -137 c50 -49 79 -50 105 -3 12 24 27 38 39 38 11 0 41 -24 67 -52 55 -59 70 -59 101 2 28 55 34 56 62 11 32 -50 69 -55 107 -15 13 14 37 32 52 40 26 14 29 13 55 -13 15 -16 37 -42 49 -58 l22 -30 26 30 c14 17 30 36 36 43 15 19 63 14 92 -8 44 -35 69 -78 71 -123 1 -34 5 -43 22 -45 11 -2 27 4 34 13 19 23 63 18 89 -9 21 -22 23 -33 20 -98 -4 -67 -2 -73 16 -76 34 -5 55 -54 49 -114 -8 -83 -12 -96 -42 -123 l-27 -26 24 -20 c43 -35 58 -25 91 63 12 32 26 61 32 64 5 4 20 -3 31 -15 18 -18 22 -33 22 -90 0 -64 -2 -70 -36 -108 -35 -39 -36 -43 -28 -87 18 -97 -30 -226 -84 -226 -11 0 -35 5 -53 12 -47 17 -66 -1 -58 -56 4 -22 10 -48 14 -56 9 -16 -5 -50 -20 -50 -6 0 -28 18 -51 41 -40 40 -41 40 -61 22 -18 -16 -20 -26 -15 -86 l6 -67 -27 6 c-15 4 -39 13 -54 20 -56 28 -83 7 -83 -65 0 -43 -2 -46 -29 -49 -24 -3 -38 6 -81 52 l-52 55 -25 -27 c-14 -15 -31 -37 -37 -49 -6 -13 -17 -23 -24 -23 -11 0 -37 64 -37 93 0 21 -71 83 -127 111 -32 16 -53 33 -54 44 0 9 0 45 1 79 2 78 -15 135 -51 169 -23 22 -39 28 -86 30 -93 5 -117 6 -143 2 -21 -2 -26 2 -28 24 -2 15 2 37 8 48 13 25 31 138 35 230 7 136 -35 212 -149 266 -58 28 -82 34 -137 34 -49 0 -70 4 -80 16 -11 14 -10 19 10 36 15 11 31 16 40 12 35 -15 67 -15 80 -1 10 13 9 23 -6 54 -11 21 -17 49 -15 61 3 22 7 23 39 17 20 -4 52 -17 72 -31 20 -13 45 -24 57 -24 24 0 59 34 50 48 -11 18 6 72 22 72 9 0 32 -16 52 -35z m-194 -369 l48 -43 4 -75 c3 -52 -1 -85 -12 -112 -9 -21 -16 -59 -17 -85 0 -43 -7 -89 -45 -301 -37 -210 -38 -294 -4 -325 16 -14 25 -11 109 32 l92 48 107 0 c95 0 110 -3 139 -23 54 -38 76 -77 77 -139 2 -86 -17 -90 -154 -38 -63 24 -82 27 -192 32 -130 6 -171 -15 -250 -130 -16 -23 -95 -57 -132 -57 -8 0 -41 10 -73 21 -46 18 -77 41 -153 114 -124 122 -193 155 -317 155 -75 0 -86 2 -108 24 -33 33 -40 67 -21 105 40 76 191 45 300 -63 78 -77 81 -79 106 -66 19 10 21 17 15 48 -12 58 -9 430 4 497 6 33 13 68 14 78 2 10 25 62 51 115 38 75 60 107 100 141 81 68 131 91 202 91 59 0 64 -2 110 -44z m-1536 -190 c0 -26 37 -60 65 -61 16 0 30 -6 33 -13 3 -10 -5 -12 -34 -6 -22 3 -47 11 -57 16 -22 11 -39 52 -31 73 7 17 24 10 24 -9z m30 -197 c30 -12 62 -25 70 -29 12 -6 16 -36 21 -141 3 -74 11 -147 16 -164 6 -16 21 -66 33 -110 13 -44 31 -95 41 -114 17 -32 17 -35 2 -46 -10 -8 -14 -19 -10 -30 6 -14 10 -15 22 -5 9 7 17 11 18 9 7 -10 57 -118 57 -123 0 -3 -12 -4 -26 -3 -39 3 -40 -19 -3 -39 28 -14 30 -17 15 -26 -9 -5 -25 -7 -34 -3 -9 4 -28 9 -42 11 -26 5 -54 33 -95 96 -29 44 -32 74 -9 100 14 14 14 20 4 33 -12 14 -15 14 -30 0 -26 -23 -34 -19 -58 31 -46 94 -74 192 -93 329 -17 115 4 264 35 251 6 -2 36 -14 66 -27z m1824 -205 c16 -42 -54 -75 -186 -90 -53 -5 -55 -3 -37 57 l12 38 29 -24 c16 -14 36 -25 44 -25 15 0 54 34 54 48 0 14 78 11 84 -4z m-123 -534 c21 -12 26 -30 7 -30 -6 0 -20 8 -30 17 -29 26 -45 4 -30 -43 10 -34 9 -39 -17 -63 -15 -14 -40 -32 -55 -40 -24 -13 -28 -13 -41 5 -15 19 -15 19 -30 0 -8 -11 -15 -28 -15 -38 0 -26 -55 -52 -81 -37 -17 9 -20 17 -15 42 7 36 27 59 81 97 38 26 43 27 72 15 27 -12 34 -11 45 2 11 13 9 18 -10 31 -24 16 -29 38 -9 45 22 10 108 7 128 -3z m-1056 -123 c8 -13 24 -52 36 -88 31 -95 60 -119 101 -82 13 12 18 31 18 72 0 60 10 59 30 -2 19 -59 37 -58 90 2 43 48 49 52 69 42 19 -11 22 -19 20 -80 -2 -79 3 -91 37 -91 20 0 29 11 54 65 16 36 36 65 44 65 29 0 38 -28 35 -107 -4 -78 -4 -78 22 -81 26 -3 31 1 88 77 40 54 52 -25 19 -128 -9 -28 -7 -36 10 -53 20 -20 20 -20 66 1 26 11 60 30 77 42 29 21 31 21 44 3 20 -26 19 -35 -10 -74 -27 -37 -32 -69 -13 -88 20 -20 50 -13 108 23 90 58 95 12 10 -96 -27 -35 -50 -69 -50 -75 0 -6 9 -19 20 -29 19 -17 21 -17 60 0 22 10 47 26 56 36 9 10 21 16 25 13 20 -12 7 -46 -36 -94 -25 -28 -45 -59 -45 -69 0 -30 26 -44 67 -37 71 12 77 11 81 -6 2 -11 -11 -26 -37 -42 -55 -35 -78 -70 -60 -92 11 -13 26 -15 77 -11 51 4 65 2 69 -11 12 -31 -45 -56 -151 -67 -22 -2 -46 -31 -46 -55 0 -28 34 -52 65 -44 14 4 36 2 48 -4 12 -6 33 -12 47 -14 31 -4 34 -36 5 -52 -53 -29 -75 -49 -75 -66 0 -23 36 -50 67 -50 32 0 29 -17 -4 -23 -98 -20 -113 -28 -113 -61 0 -31 19 -46 55 -46 17 0 40 -6 51 -14 24 -19 13 -32 -59 -66 -42 -20 -53 -30 -55 -52 -3 -23 2 -30 24 -39 l28 -10 -39 -22 c-46 -26 -52 -43 -27 -75 13 -17 30 -24 58 -25 46 -2 54 -21 25 -59 -18 -22 -30 -26 -85 -30 -141 -9 -143 -95 -3 -127 108 -24 73 -87 -59 -106 -84 -12 -109 -56 -55 -94 16 -12 35 -21 43 -21 20 0 59 -30 53 -41 -4 -5 -38 -9 -76 -9 -65 0 -70 -2 -81 -26 -13 -29 -4 -52 28 -69 46 -24 48 -27 30 -41 -15 -10 -25 -10 -58 2 -74 26 -108 14 -108 -38 0 -19 10 -35 35 -55 61 -48 43 -57 -37 -18 -65 32 -93 32 -114 1 -15 -23 -14 -27 11 -70 15 -25 31 -46 36 -46 18 0 9 -36 -16 -63 -32 -33 -42 -34 -89 -2 -40 27 -57 30 -87 15 -20 -11 -26 -54 -9 -65 12 -8 13 -25 1 -25 -5 0 -19 11 -32 25 -50 52 -120 13 -91 -50 20 -44 15 -65 -15 -65 -20 0 -43 16 -85 57 -51 50 -60 56 -73 43 -16 -16 -19 -57 -9 -108 5 -27 3 -32 -13 -32 -20 0 -53 55 -53 87 0 20 -38 63 -57 63 -30 0 -60 -104 -40 -137 4 -6 0 -19 -10 -28 -16 -16 -18 -16 -35 5 -11 14 -18 39 -18 66 0 33 -5 46 -22 58 -27 19 -33 15 -59 -37 -24 -46 -35 -57 -61 -57 -34 0 -58 36 -58 88 0 38 -5 53 -24 71 l-25 23 -25 -25 c-16 -16 -26 -37 -26 -55 0 -17 -8 -40 -18 -52 -17 -21 -19 -22 -36 -5 -13 14 -15 27 -10 61 12 83 -42 102 -96 34 -27 -34 -35 -38 -51 -30 -21 12 -26 63 -9 90 6 10 4 20 -7 32 -21 23 -38 23 -74 -3 -16 -11 -39 -19 -52 -17 -24 3 -27 29 -12 114 10 55 -4 62 -66 30 -51 -27 -92 -27 -103 -1 -7 18 22 111 40 125 31 27 9 70 -36 70 -17 0 -35 -12 -56 -37 -32 -38 -32 -38 -53 -19 -30 27 -26 50 14 95 66 72 37 126 -52 96 -40 -14 -48 -14 -61 -2 -21 22 -7 49 48 90 27 21 50 43 50 51 0 28 -29 39 -85 32 -31 -3 -56 -2 -60 4 -3 5 21 31 55 56 40 32 60 54 60 69 0 34 -19 45 -67 38 -67 -9 -51 23 32 65 22 11 49 29 59 41 16 18 17 25 7 47 -11 26 -13 26 -86 19 l-74 -7 -7 27 c-7 29 9 74 28 79 7 2 45 11 83 21 81 19 95 29 95 61 0 30 -14 38 -80 41 -75 4 -100 11 -100 28 0 17 16 27 49 32 84 10 115 19 128 40 14 20 13 24 -11 48 -21 21 -34 25 -84 25 -74 0 -97 15 -87 58 7 33 8 33 95 52 66 14 80 21 94 43 15 23 -28 67 -66 67 -76 0 -92 45 -19 52 58 6 101 30 101 58 0 21 -43 55 -83 65 -14 4 -32 14 -38 22 -19 22 6 34 64 31 37 -1 53 3 69 19 l21 21 -27 26 c-15 13 -40 26 -54 28 -22 2 -27 8 -27 32 0 45 24 54 89 32 45 -16 58 -17 71 -6 25 20 17 54 -20 90 -40 38 -42 50 -17 73 15 13 20 14 42 2 34 -19 54 -18 73 3 16 17 15 22 -18 73 -40 63 -43 81 -15 109 28 28 55 25 100 -11 23 -18 45 -29 54 -26 24 9 29 49 12 97 -14 40 -14 46 1 62 23 25 30 23 87 -25 88 -75 110 -81 141 -33 15 23 15 27 -9 75 -51 100 -29 123 46 47 58 -59 84 -65 113 -23 12 17 11 23 -5 46 -51 71 -12 91 42 21 25 -33 42 -46 64 -48 43 -4 61 19 45 56 -10 22 -10 25 0 15 7 -7 23 -13 35 -13 26 0 65 45 58 65 -6 16 12 55 26 55 5 0 16 -10 25 -23z"/>
 <path d="M3530 6525 c-25 -25 -31 -38 -23 -46 17 -17 48 -6 48 18 1 11 6 28 13 36 27 32 -6 25 -38 -8z"/>
 <path d="M3755 6540 c-11 -18 10 -32 41 -28 40 4 38 32 -3 36 -17 2 -34 -2 -38 -8z"/>
 <path d="M4061 6537 c-6 -8 -8 -17 -4 -20 3 -4 1 -13 -6 -20 -9 -11 -8 -17 2 -25 11 -9 19 -5 36 19 23 31 22 59 -2 59 -8 0 -20 -6 -26 -13z"/>
 <path d="M4461 6526 c-9 -10 -9 -16 -1 -21 6 -4 15 -18 21 -32 10 -26 26 -27 43 -1 7 12 5 23 -7 42 -19 29 -39 33 -56 12z"/>
 <path d="M3567 6483 c-12 -11 -8 -22 14 -33 27 -15 56 5 38 26 -12 15 -41 19 -52 7z"/>
 <path d="M5002 6448 c-17 -17 -15 -43 3 -58 21 -18 37 0 33 36 -3 31 -18 40 -36 22z"/>
 <path d="M4236 6443 c-12 -12 -5 -22 26 -37 21 -11 35 -13 42 -6 6 6 6 13 1 18 -17 15 -63 31 -69 25z"/>
 <path d="M4429 6308 c-5 -11 -11 -59 -12 -92 -2 -47 18 -60 33 -20 14 35 9 106 -7 112 -7 2 -14 2 -14 0z"/>
 <path d="M5025 6268 c-8 -21 10 -73 26 -73 18 0 24 38 9 64 -12 24 -28 27 -35 9z"/>
 <path d="M4953 5948 c-36 -22 -41 -35 -18 -44 17 -7 77 34 72 49 -6 18 -20 16 -54 -5z"/>
 <path d="M4602 5778 c-7 -7 -12 -20 -12 -31 0 -10 -4 -27 -10 -37 -7 -13 -6 -21 4 -29 16 -14 26 -2 45 51 16 50 2 75 -27 46z"/>
 <path d="M4794 5756 c-8 -22 -1 -59 13 -64 20 -6 39 44 23 63 -16 19 -29 19 -36 1z"/>
 <path d="M4941 5741 c-14 -26 -14 -78 0 -87 18 -11 32 13 33 57 1 46 -16 62 -33 30z"/>
 <path d="M4365 5740 c-8 -13 12 -47 35 -60 28 -15 37 12 16 45 -17 26 -40 33 -51 15z"/>
 <path d="M4714 5559 c-10 -17 13 -36 27 -22 12 12 4 33 -11 33 -5 0 -12 -5 -16 -11z"/>
 <path d="M4344 5504 c-4 -10 -13 -33 -20 -51 -10 -26 -10 -34 1 -43 20 -16 29 -7 45 40 12 36 12 43 -3 57 -15 15 -17 15 -23 -3z"/>
 <path d="M4863 5488 c-18 -23 -21 -57 -8 -68 11 -9 18 -5 30 14 26 39 5 88 -22 54z"/>
 <path d="M4585 5470 c-9 -14 3 -30 23 -30 10 0 27 -7 39 -15 18 -12 23 -13 32 -1 9 11 6 18 -18 35 -31 22 -66 27 -76 11z"/>
 <path d="M4475 5220 c-10 -16 4 -118 17 -126 22 -14 31 15 22 72 -9 56 -25 77 -39 54z"/>
 <path d="M4323 5188 c-6 -7 -15 -27 -21 -45 -8 -25 -8 -34 3 -43 11 -9 17 -6 30 13 29 45 18 114 -12 75z"/>
 <path d="M4682 5188 c-15 -15 -16 -84 -1 -94 17 -10 27 7 31 55 3 45 -8 61 -30 39z"/>
 <path d="M4341 4881 c-7 -13 -8 -22 -1 -26 14 -9 52 14 47 28 -6 20 -35 19 -46 -2z"/>
 <path d="M4345 4690 c-4 -7 -3 -16 3 -22 14 -14 57 -6 57 12 0 18 -50 26 -60 10z"/>
 <path d="M4673 4554 c-8 -21 13 -42 28 -27 13 13 5 43 -11 43 -6 0 -13 -7 -17 -16z"/>
 <path d="M4773 4554 c-9 -23 10 -69 27 -69 19 0 25 38 10 64 -13 25 -28 27 -37 5z"/>
 <path d="M5217 5589 c-48 -25 -48 -55 1 -53 29 2 32 -1 32 -25 0 -29 -18 -49 -89 -96 -54 -36 -66 -63 -40 -90 18 -19 19 -19 48 9 l29 28 4 -27 c3 -32 28 -51 52 -42 12 5 16 19 16 55 0 51 26 104 63 126 20 12 33 -1 43 -44 8 -38 19 -55 38 -58 36 -7 75 55 46 73 -5 3 -10 19 -10 34 0 40 -28 61 -81 61 -38 0 -48 4 -72 35 -15 19 -31 35 -35 35 -4 -1 -24 -10 -45 -21z"/>
 <path d="M5062 5037 c-15 -20 -32 -78 -32 -112 0 -73 89 -92 97 -20 2 11 5 36 9 56 5 32 2 38 -29 62 -27 20 -37 24 -45 14z"/>
 <path d="M5261 5011 c-30 -25 -33 -31 -27 -62 4 -19 8 -43 9 -54 5 -48 49 -61 81 -26 21 23 20 90 -2 133 -19 39 -23 40 -61 9z"/>
 <path d="M3904 5166 c-17 -13 -17 -16 -4 -30 14 -14 19 -14 35 -3 11 9 16 20 12 31 -8 20 -17 20 -43 2z"/>
 <path d="M3994 5055 c-16 -25 -13 -55 5 -55 16 0 44 48 37 65 -8 22 -23 18 -42 -10z"/>
 <path d="M3926 4912 c-11 -10 -6 -20 20 -37 30 -20 56 -6 35 18 -13 16 -47 28 -55 19z"/>
 <path d="M4020 4775 c-13 -15 -7 -45 8 -45 15 0 44 38 37 49 -9 16 -30 14 -45 -4z"/>
 <path d="M4103 4574 c-8 -21 13 -42 28 -27 13 13 5 43 -11 43 -6 0 -13 -7 -17 -16z"/>
 <path d="M4695 3910 c-107 -9 -179 -30 -308 -92 -121 -58 -162 -97 -213 -201 -18 -37 -34 -57 -46 -57 -19 0 -109 73 -178 144 -48 50 -68 56 -93 28 -34 -37 -13 -88 51 -122 52 -28 186 -156 177 -170 -8 -13 -82 27 -137 76 -82 73 -166 94 -179 44 -9 -38 5 -55 84 -97 84 -46 192 -125 201 -149 3 -8 1 -24 -4 -35 -19 -35 -80 -22 -227 47 -39 19 -81 34 -92 34 -25 0 -54 -41 -45 -64 8 -21 75 -56 107 -56 14 0 46 -9 73 -19 27 -10 68 -24 92 -30 24 -7 45 -18 48 -25 3 -8 0 -74 -6 -147 -9 -111 -15 -201 -19 -296 -1 -9 -19 -13 -54 -13 -107 0 -197 -56 -225 -141 -13 -39 -15 -239 -2 -279 5 -14 11 -37 14 -52 9 -38 111 -144 173 -177 47 -26 58 -28 110 -22 56 7 135 40 148 61 9 14 41 12 53 -3 17 -20 154 -86 193 -93 66 -12 161 -2 263 27 42 12 50 12 54 0 12 -35 76 -91 116 -102 22 -5 52 -14 66 -18 14 -4 36 -4 50 0 14 4 42 7 62 8 62 2 143 38 183 82 50 56 105 173 105 224 0 64 -41 137 -124 220 -83 83 -83 83 -38 171 11 21 23 62 27 89 4 28 16 84 28 125 11 41 21 86 22 100 5 66 -17 59 223 79 122 11 184 32 191 65 6 38 -19 43 -136 28 -183 -23 -236 -25 -257 -9 -19 14 -19 15 2 26 12 6 45 16 74 21 94 18 192 52 217 76 22 20 23 26 13 50 -14 29 -25 29 -117 -5 -69 -26 -184 -46 -196 -34 -16 16 13 38 86 67 172 68 197 80 211 102 28 43 -21 94 -67 70 -13 -7 -72 -38 -131 -70 -59 -32 -111 -55 -116 -52 -5 3 -12 26 -15 51 -13 89 -93 293 -141 358 -35 48 -124 115 -179 135 -75 28 -84 29 -172 22z m111 -146 c129 -56 235 -209 260 -374 11 -73 11 -86 -1 -93 -8 -4 -20 -17 -26 -28 -8 -16 -7 -25 7 -40 9 -10 23 -19 31 -19 7 0 13 -4 13 -10 0 -5 -9 -10 -20 -10 -12 0 -24 -9 -30 -22 -7 -19 -3 -28 22 -51 33 -31 32 -63 -2 -54 -10 3 -24 -1 -30 -9 -20 -23 -7 -47 29 -56 31 -9 33 -11 27 -46 -14 -95 -29 -170 -41 -202 -8 -19 -17 -52 -20 -74 -4 -21 -21 -71 -40 -110 -18 -39 -47 -102 -65 -141 -59 -127 -143 -221 -237 -267 -58 -27 -82 -33 -155 -36 -80 -4 -93 -1 -151 26 -144 67 -193 151 -229 392 -5 36 -14 81 -19 100 -5 19 -10 112 -11 205 -2 182 -1 188 7 252 l6 43 57 -6 c46 -5 60 -3 71 10 12 14 11 19 -4 36 -10 11 -30 20 -45 20 -35 0 -65 23 -57 44 4 11 18 16 45 16 24 0 45 6 53 16 12 14 8 21 -26 50 -22 18 -37 35 -35 37 3 2 15 10 28 16 25 13 28 37 7 65 -12 16 -11 24 10 65 34 66 60 92 150 153 185 126 302 155 421 102z m-825 -1174 l24 -19 -40 -1 c-53 0 -103 -32 -122 -77 -35 -85 5 -234 76 -280 41 -28 119 -31 157 -7 30 20 40 14 24 -15 -13 -26 -80 -61 -116 -61 -41 0 -132 57 -159 100 -51 81 -78 207 -56 262 5 13 12 36 16 51 12 57 146 89 196 47z m48 -99 c13 -8 27 -47 48 -129 7 -30 -15 -82 -41 -91 -34 -13 -57 0 -87 47 -37 59 -40 131 -7 162 23 21 63 26 87 11z m1072 -118 c47 -51 79 -109 79 -146 0 -32 -28 -107 -53 -144 -51 -74 -196 -112 -262 -69 -34 22 -64 73 -58 97 7 25 7 25 59 -13 36 -26 57 -33 107 -36 75 -5 124 19 157 76 19 32 20 41 10 72 -6 19 -10 40 -9 45 8 30 -16 78 -57 112 -24 21 -44 41 -44 45 0 20 30 4 71 -39z m-74 -55 c49 -53 34 -170 -22 -184 -36 -9 -83 14 -101 48 -15 28 -14 32 12 71 35 54 65 87 79 87 6 0 21 -10 32 -22z"/>
 <path d="M4465 3423 c-74 -26 -101 -70 -100 -162 0 -39 5 -57 17 -64 23 -15 48 8 48 43 0 39 40 94 72 98 22 3 31 -4 52 -41 21 -35 26 -57 26 -109 0 -63 -1 -66 -56 -138 -44 -57 -54 -77 -47 -89 11 -17 159 -60 209 -61 20 0 39 9 54 25 l24 25 -23 30 c-83 113 -92 144 -65 221 30 83 88 113 131 67 27 -29 53 -92 53 -128 0 -33 21 -53 52 -48 22 3 23 7 19 63 -4 72 -34 135 -89 189 -35 33 -44 37 -69 31 -15 -5 -35 -9 -43 -11 -8 -2 -30 -19 -48 -38 -36 -40 -52 -45 -52 -18 0 16 -111 135 -122 131 -2 -1 -21 -8 -43 -16z"/>
 <path d="M4389 2771 c-19 -15 -23 -29 -24 -84 -2 -56 2 -70 19 -86 25 -23 66 -19 92 10 14 16 15 23 4 48 -6 16 -10 47 -9 68 2 21 0 44 -5 51 -11 18 -51 15 -77 -7z"/>
 <path d="M4630 2724 c-6 -14 -10 -31 -10 -38 0 -6 -9 -29 -20 -51 -22 -43 -17 -55 30 -78 45 -23 90 9 80 58 -1 5 4 27 11 49 13 37 12 39 -16 62 -39 31 -63 30 -75 -2z"/>
 <path d="M6676 6651 c-6 -10 10 -25 36 -34 31 -11 30 12 -1 28 -16 8 -32 11 -35 6z"/>
 <path d="M6822 6527 c-17 -20 32 -67 50 -49 10 10 7 18 -13 38 -21 21 -28 23 -37 11z"/>
 <path d="M6654 6436 c-4 -10 -2 -22 4 -28 8 -8 13 -7 18 6 4 10 2 22 -4 28 -8 8 -13 7 -18 -6z"/>
 <path d="M2815 6180 c-4 -7 -3 -16 3 -22 14 -14 45 -2 40 15 -6 16 -34 21 -43 7z"/>
 <path d="M2814 6099 c-10 -17 13 -36 27 -22 12 12 4 33 -11 33 -5 0 -12 -5 -16 -11z"/>
 <path d="M7656 6922 c-9 -15 12 -54 25 -47 12 8 11 18 -4 40 -10 12 -16 14 -21 7z"/>
 <path d="M8180 6325 c-9 -11 -10 -19 -3 -26 7 -7 14 -5 23 6 9 11 10 19 3 26 -7 7 -14 5 -23 -6z"/>
 <path d="M1697 4664 c-10 -10 -9 -42 2 -48 5 -3 14 0 20 7 12 15 -9 54 -22 41z"/>
 <path d="M8676 4441 c-4 -5 -2 -12 3 -15 5 -3 7 -15 4 -25 -6 -23 15 -38 23 -17 4 9 0 24 -7 33 -8 9 -12 18 -11 20 2 3 1 7 -1 9 -3 3 -8 1 -11 -5z"/>
 <path d="M8734 3406 c-4 -10 -2 -22 4 -28 8 -8 13 -7 18 6 4 10 2 22 -4 28 -8 8 -13 7 -18 -6z"/>
 <path d="M1695 2810 c-104 -49 -196 -98 -203 -108 -11 -18 -5 -35 50 -143 96 -188 167 -254 242 -229 42 14 86 62 86 95 0 22 2 23 36 14 68 -19 179 59 177 125 -1 21 -28 86 -73 172 -80 156 -86 164 -109 163 -9 0 -101 -40 -206 -89z m240 -137 c9 -24 -37 -63 -74 -63 -45 0 -46 26 -3 55 43 29 67 32 77 8z m-187 -110 c4 -25 -27 -46 -61 -41 -33 5 -33 34 0 52 36 20 57 16 61 -11z"/>
 <path d="M7908 2723 c-33 -40 -140 -234 -135 -246 7 -18 356 -249 384 -255 18 -3 30 8 66 64 90 141 119 201 107 223 -6 12 -22 24 -37 27 -27 7 -38 -2 -86 -70 -17 -25 -19 -25 -47 -11 -40 21 -41 24 -18 78 20 46 20 48 3 67 -27 30 -50 24 -85 -20 -34 -43 -56 -46 -92 -11 -17 15 -16 19 8 71 l25 55 -26 22 c-31 28 -47 29 -67 6z"/>
 <path d="M2190 2253 c-51 -26 -191 -135 -228 -177 -22 -25 -32 -47 -32 -69 0 -75 99 -216 182 -258 20 -10 55 -19 76 -19 36 0 50 9 141 91 56 51 110 106 121 124 41 66 18 146 -68 237 -74 79 -133 101 -192 71z m140 -160 c0 -26 -6 -33 -110 -122 -94 -80 -140 -101 -140 -63 0 25 6 31 114 120 98 81 136 99 136 65z"/>
 <path d="M7579 2223 c-47 -52 -68 -84 -62 -99 10 -26 342 -306 359 -302 24 4 115 125 108 143 -7 18 -351 285 -368 285 -7 0 -24 -12 -37 -27z"/>
 <path d="M7272 1887 c-23 -23 -42 -49 -42 -57 0 -7 12 -47 26 -88 14 -41 23 -77 20 -80 -3 -3 -30 20 -58 51 -29 32 -59 57 -65 57 -19 0 -93 -70 -93 -87 0 -15 195 -269 258 -335 33 -35 36 -36 62 -23 39 20 92 84 86 103 -11 39 -35 129 -41 157 -6 28 -2 26 57 -32 35 -35 70 -63 79 -63 19 0 99 81 99 100 0 17 -319 340 -336 340 -5 0 -29 -19 -52 -43z"/>
 <path d="M2622 1756 l-37 -35 40 -41 c58 -60 70 -65 104 -39 39 29 66 22 66 -16 0 -22 -7 -33 -25 -42 -22 -10 -44 -8 -133 13 -96 22 -110 23 -141 10 -42 -17 -86 -74 -86 -110 0 -89 163 -236 262 -236 33 0 88 41 88 67 0 17 -97 93 -120 93 -10 0 -22 -4 -25 -10 -11 -18 -45 -11 -45 9 0 38 22 43 110 27 131 -25 163 -22 209 19 82 74 80 136 -8 224 -65 65 -130 101 -184 101 -29 0 -46 -8 -75 -34z"/>
 <path d="M6775 1491 c-78 -20 -175 -93 -196 -148 -17 -45 -9 -74 52 -194 65 -128 101 -173 147 -182 86 -17 238 68 282 158 20 41 21 51 11 83 -14 45 -147 238 -181 263 -30 23 -75 30 -115 20z m8 -153 c48 -66 127 -206 127 -227 0 -14 -6 -21 -19 -21 -29 0 -182 256 -164 274 14 13 33 4 56 -26z"/>
 <path d="M3163 1438 c-39 -43 -235 -369 -230 -382 8 -21 126 -89 142 -82 8 3 32 31 52 63 l38 58 5 -86 c3 -47 10 -93 17 -101 7 -8 35 -25 62 -38 73 -34 81 -24 81 104 l0 101 102 96 c63 60 98 100 94 108 -7 10 -118 71 -130 71 -3 0 -20 -13 -38 -28 -18 -16 -50 -41 -71 -57 l-39 -29 15 35 c8 19 22 51 32 71 21 43 15 55 -47 94 -47 30 -59 30 -85 2z"/>
 <path d="M6210 1213 c-97 -40 -110 -48 -110 -74 0 -28 131 -392 148 -411 8 -10 23 -18 33 -18 28 0 125 46 131 62 3 8 -23 85 -58 171 -35 87 -64 163 -64 171 0 8 16 23 35 35 38 22 44 44 19 79 -20 29 -32 27 -134 -15z"/>
 <path d="M3718 1173 c-9 -10 -51 -107 -94 -217 l-78 -198 23 -19 c12 -10 47 -26 77 -36 47 -15 56 -15 69 -2 19 19 157 419 150 436 -6 17 -82 52 -111 53 -11 0 -28 -8 -36 -17z"/>
 <path d="M4110 1061 c-13 -11 -35 -80 -70 -211 -28 -107 -53 -200 -55 -207 -10 -31 31 -53 147 -78 64 -14 124 -22 133 -19 24 9 37 51 25 75 -6 11 -30 24 -55 30 -37 9 -45 15 -45 34 0 45 10 55 55 55 44 0 75 22 75 53 0 19 -37 47 -63 47 -23 0 -31 22 -23 65 l7 35 56 -2 c51 -3 58 -1 69 21 15 30 3 58 -29 71 -12 4 -64 17 -115 28 -86 18 -95 18 -112 3z"/>
 <path d="M5677 1059 c-103 -24 -157 -79 -157 -160 0 -74 37 -261 58 -289 33 -45 79 -62 159 -57 129 7 226 74 226 156 0 20 -15 90 -33 155 -37 133 -67 179 -128 196 -43 12 -72 11 -125 -1z m57 -141 c29 -101 56 -237 50 -252 -9 -23 -33 -19 -44 7 -17 39 -60 265 -54 282 12 31 34 14 48 -37z"/>
 <path d="M5184 981 c-47 -12 -52 -18 -69 -74 -9 -29 -22 -63 -29 -76 -13 -23 -14 -19 -18 48 -5 86 -18 102 -86 99 -79 -3 -80 -5 -87 -244 -5 -151 -4 -217 4 -233 10 -18 21 -21 80 -21 85 0 99 12 103 95 l3 60 30 -49 c59 -96 60 -96 130 -96 80 0 98 16 71 64 -10 17 -34 59 -54 94 l-35 63 38 124 c32 103 36 127 25 140 -13 16 -54 18 -106 6z"/>
 </g>
<g id="layer102" fill="#ffffff" stroke="none">
 <path d="M0 4655 l0 -4655 4980 0 4980 0 0 4655 0 4655 -4980 0 -4980 0 0 -4655z m5330 3506 c185 -15 323 -38 545 -90 50 -12 131 -30 180 -42 50 -11 100 -27 113 -35 12 -8 70 -30 130 -49 134 -42 213 -72 325 -124 49 -23 94 -41 99 -41 20 0 453 -244 548 -309 271 -183 620 -490 743 -651 23 -30 67 -86 98 -125 164 -205 311 -435 440 -687 49 -98 96 -178 103 -178 15 0 26 -21 26 -48 0 -9 20 -67 44 -128 56 -143 117 -333 146 -454 13 -52 29 -107 37 -122 7 -15 16 -56 19 -90 4 -35 12 -72 19 -84 20 -32 28 -89 16 -112 -8 -15 -6 -50 7 -134 13 -91 17 -183 17 -473 0 -325 -3 -374 -23 -505 -79 -503 -236 -976 -452 -1361 -38 -66 -60 -117 -57 -128 6 -22 -188 -317 -220 -335 -11 -6 -52 -51 -92 -101 -196 -245 -411 -455 -671 -657 -47 -36 -101 -83 -120 -103 -47 -49 -117 -98 -125 -85 -3 5 -37 -10 -75 -35 -106 -68 -199 -118 -385 -210 -429 -210 -860 -336 -1355 -397 -143 -18 -768 -18 -910 0 -651 81 -1274 298 -1747 609 -29 19 -58 33 -65 30 -14 -5 -126 70 -263 177 -308 239 -599 544 -819 860 -42 60 -74 116 -72 123 3 7 -14 44 -38 81 -204 317 -376 734 -475 1152 -105 441 -135 947 -80 1368 8 60 8 86 0 96 -22 26 59 395 144 656 74 225 175 461 210 490 9 8 33 46 52 84 62 124 145 266 228 390 176 265 227 336 252 356 15 11 34 34 44 49 21 34 357 366 449 443 111 93 253 197 296 217 22 11 63 36 90 57 125 96 472 269 806 403 228 91 282 108 503 156 326 70 489 95 588 89 44 -3 95 1 132 10 68 17 374 15 595 -3z"/>
 <path d="M4640 8079 c-629 -55 -1213 -240 -1720 -545 -283 -170 -432 -280 -678 -506 -430 -393 -767 -882 -987 -1433 -62 -156 -97 -266 -140 -440 -14 -55 -29 -113 -34 -130 -5 -16 -13 -48 -16 -70 -4 -22 -9 -49 -11 -60 -1 -11 -5 -34 -8 -52 -2 -18 -7 -36 -9 -40 -3 -5 -8 -40 -12 -78 -4 -39 -9 -83 -11 -100 -45 -406 -25 -810 62 -1215 133 -618 439 -1228 860 -1710 144 -166 418 -425 584 -552 380 -291 830 -521 1285 -657 291 -86 516 -129 815 -156 285 -25 685 -14 900 25 30 6 73 13 95 16 21 3 60 10 85 15 25 6 65 14 90 19 76 14 372 98 481 136 503 174 958 448 1389 836 88 80 305 313 394 423 341 423 566 861 702 1368 89 330 112 448 96 480 -12 24 -20 72 -27 157 -2 30 -7 69 -10 85 -4 17 -8 44 -9 60 -2 17 -10 57 -19 90 -23 88 -41 275 -40 395 6 334 5 431 -8 664 -2 43 1 51 19 57 18 7 21 14 16 41 -16 93 -97 333 -171 508 -70 166 -246 478 -350 622 -26 37 -77 109 -113 159 -103 144 -162 213 -324 379 -211 217 -364 352 -394 347 -16 -3 -33 6 -57 30 -31 31 -37 33 -52 22 -14 -12 -15 -11 -9 7 7 23 -13 45 -84 90 -25 16 -81 56 -125 89 -133 101 -239 160 -528 294 -49 23 -90 41 -93 41 -3 0 -29 11 -59 25 -203 92 -624 198 -980 246 -174 23 -623 34 -795 18z m685 -798 c481 -57 895 -199 1315 -451 646 -388 1138 -1028 1349 -1755 77 -267 131 -620 131 -870 0 -152 -32 -434 -71 -629 -86 -422 -283 -854 -548 -1204 -47 -62 -99 -131 -115 -154 -38 -54 -192 -205 -320 -315 -55 -48 -106 -92 -111 -99 -22 -25 -216 -160 -318 -220 -427 -254 -870 -404 -1347 -456 -149 -16 -533 -16 -680 1 -448 50 -898 194 -1246 399 -27 15 -56 31 -64 35 -8 4 -24 13 -35 19 -282 180 -537 398 -732 627 -189 222 -207 243 -226 273 -9 16 -21 27 -26 23 -5 -3 -7 3 -5 12 3 10 -27 73 -67 143 -242 422 -360 811 -406 1343 -16 187 -16 209 0 410 30 362 95 671 194 912 125 306 340 667 446 748 19 15 56 57 82 94 26 37 78 100 116 138 38 39 101 105 141 149 78 84 200 181 273 216 24 12 56 35 69 51 48 56 333 229 402 244 17 3 54 21 82 39 28 18 113 56 189 84 277 102 548 167 808 192 61 5 124 12 140 14 54 8 488 -2 580 -13z m-3336 -4542 c97 -188 97 -220 -4 -269 -45 -22 -95 -19 -116 6 -18 22 -28 7 -22 -31 7 -45 -15 -80 -62 -95 -47 -16 -84 -1 -129 51 -41 48 -157 274 -150 291 5 14 369 186 395 187 10 1 40 -47 88 -140z m5975 -32 c16 -12 16 -16 -8 -67 l-26 -55 28 -27 c15 -15 39 -30 53 -33 22 -5 30 0 54 34 28 41 61 54 71 28 2 -7 -4 -33 -15 -57 -19 -42 -19 -46 -3 -63 15 -17 64 -47 76 -47 2 0 19 23 37 50 33 51 57 62 78 36 14 -17 15 -17 -72 -163 -36 -62 -67 -103 -76 -103 -17 0 -364 226 -369 241 -5 14 129 239 143 239 6 0 19 -6 29 -13z m-5653 -483 c64 -33 139 -146 139 -211 0 -51 -26 -86 -134 -183 -79 -71 -93 -80 -128 -80 -78 0 -166 71 -214 174 -46 98 -33 128 99 229 133 101 163 110 238 71z m5488 -125 c88 -68 162 -129 165 -136 7 -16 -73 -123 -92 -123 -16 0 -328 266 -336 286 -3 7 11 34 31 59 25 33 41 45 54 42 10 -3 90 -61 178 -128z m-312 -341 c84 -84 153 -159 153 -167 0 -20 -60 -81 -79 -81 -9 0 -46 30 -83 67 -83 82 -90 74 -55 -64 23 -89 24 -100 11 -121 -23 -35 -75 -64 -91 -50 -30 24 -263 328 -263 341 0 17 55 67 73 67 7 0 41 -32 76 -71 91 -101 93 -91 28 123 -11 36 -10 39 23 73 19 19 39 35 44 35 6 0 79 -69 163 -152z m-4709 -9 c62 -31 140 -111 148 -154 8 -44 -9 -88 -48 -120 -35 -30 -79 -32 -197 -10 -59 12 -86 13 -101 5 -25 -13 -36 -55 -20 -75 14 -17 46 -20 55 -5 11 18 40 11 83 -21 46 -34 50 -44 25 -71 -64 -71 -293 83 -293 198 0 36 34 81 73 93 26 8 53 6 136 -14 109 -25 122 -24 159 8 26 24 28 53 5 79 -21 24 -44 23 -76 -3 -31 -23 -45 -18 -92 31 l-30 32 28 24 c35 30 85 31 145 3z m4085 -283 c25 -10 53 -42 106 -121 93 -136 101 -159 72 -217 -52 -108 -240 -180 -306 -118 -33 31 -145 251 -145 284 0 73 82 151 185 177 45 11 53 10 88 -5z m-3613 -51 c22 -14 40 -29 40 -34 0 -4 -15 -42 -34 -82 -19 -41 -31 -78 -26 -83 5 -5 36 13 70 40 105 83 92 79 152 48 29 -14 55 -28 58 -31 2 -2 -42 -48 -98 -101 l-102 -97 0 -102 c0 -65 -4 -103 -10 -103 -10 0 -89 37 -100 47 -3 3 -7 50 -10 106 -3 59 -9 102 -15 101 -5 0 -29 -30 -53 -65 -23 -35 -47 -65 -52 -67 -12 -4 -120 60 -120 71 0 8 201 337 223 365 14 18 33 15 77 -13z m3086 -212 c5 -17 3 -28 -4 -31 -23 -7 -62 -44 -62 -58 0 -7 29 -85 64 -171 42 -104 61 -162 55 -169 -13 -16 -95 -46 -115 -42 -12 2 -37 60 -85 193 -37 105 -68 199 -68 211 -1 17 15 27 87 56 108 45 120 46 128 11z m-2526 -49 c22 -9 40 -19 40 -23 0 -3 -32 -99 -71 -213 -45 -132 -76 -208 -85 -208 -23 0 -124 41 -124 51 0 7 116 305 150 387 11 26 35 28 90 6z m497 -134 c30 0 52 -25 46 -51 -5 -19 -11 -20 -58 -14 -64 8 -79 -6 -79 -73 -1 -47 -1 -47 42 -61 35 -11 43 -17 40 -35 -3 -18 -11 -22 -58 -26 -54 -5 -55 -6 -64 -43 -12 -48 -1 -68 45 -82 60 -18 69 -28 46 -59 -12 -16 -19 -16 -132 9 -114 24 -137 35 -130 59 2 6 27 99 56 206 28 107 55 198 61 201 5 3 44 -2 86 -12 42 -10 87 -18 99 -19z m1495 20 c53 -15 72 -45 108 -176 50 -182 44 -216 -47 -260 -98 -48 -234 -42 -269 11 -8 13 -24 72 -35 131 -32 181 -24 231 43 265 70 36 139 46 200 29z m-522 -82 c0 -7 -16 -62 -35 -123 -19 -60 -35 -115 -35 -120 0 -6 23 -50 50 -98 28 -48 50 -92 50 -97 0 -6 -29 -10 -64 -10 l-64 0 -28 48 c-41 71 -76 114 -85 105 -4 -4 -9 -42 -11 -83 l-3 -75 -70 0 -70 0 3 220 c2 127 8 222 13 226 19 12 98 9 106 -3 4 -7 10 -46 14 -86 8 -98 20 -108 52 -39 14 30 28 69 32 85 3 17 12 35 18 40 25 21 127 28 127 10z"/>
 <path d="M4690 7234 c-14 -2 -65 -9 -115 -15 -451 -53 -874 -201 -1270 -446 -145 -90 -161 -100 -264 -185 -56 -45 -126 -102 -154 -124 -29 -23 -108 -100 -177 -170 -355 -365 -623 -837 -751 -1324 -28 -108 -30 -112 -35 -140 -2 -14 -7 -36 -11 -50 -25 -102 -50 -365 -52 -550 -4 -426 62 -767 219 -1140 160 -380 357 -678 640 -973 482 -502 1104 -815 1835 -923 205 -31 692 -24 865 11 14 3 44 7 66 10 106 13 311 64 469 118 792 271 1428 828 1795 1572 381 773 403 1654 62 2470 -199 475 -581 953 -1011 1263 -229 166 -516 321 -759 410 -180 66 -443 133 -637 162 -121 19 -202 23 -420 26 -148 1 -281 0 -295 -2z m1812 -521 c23 -35 29 -38 74 -38 l49 0 -2 -113 c-1 -66 -6 -119 -13 -127 -6 -7 -10 -33 -10 -57 1 -23 -3 -63 -9 -88 -6 -25 -13 -54 -15 -65 -2 -11 -14 -47 -26 -80 -34 -93 -34 -101 -11 -117 11 -8 27 -30 35 -49 20 -48 45 -68 102 -78 36 -7 57 -18 81 -45 29 -32 33 -42 33 -95 0 -41 5 -62 16 -72 9 -7 23 -30 31 -51 16 -40 64 -88 89 -88 8 0 22 -13 32 -29 13 -22 17 -49 16 -133 -2 -92 -5 -110 -28 -155 -18 -34 -27 -66 -26 -94 2 -132 -53 -239 -124 -239 -21 0 -68 -60 -63 -81 3 -10 -4 -31 -14 -48 -14 -24 -26 -31 -50 -31 -24 0 -42 -11 -76 -45 -39 -40 -49 -45 -88 -45 -37 0 -47 -5 -69 -32 -14 -18 -32 -41 -41 -50 -21 -25 -88 -23 -143 3 -43 21 -44 22 -80 3 -21 -10 -55 -21 -77 -24 -31 -4 -44 -12 -63 -40 -13 -19 -33 -40 -45 -47 -28 -16 -142 -17 -166 -1 -22 14 -49 5 -58 -19 -6 -16 -63 -88 -96 -120 -13 -13 -68 -62 -129 -113 -21 -18 -38 -40 -38 -49 0 -9 17 -38 38 -64 20 -25 49 -64 65 -84 15 -21 49 -68 76 -105 27 -37 55 -84 61 -105 7 -21 21 -56 31 -79 11 -23 19 -54 19 -69 0 -15 12 -50 26 -78 26 -53 45 -123 50 -192 2 -22 6 -55 10 -73 4 -22 1 -46 -11 -72 -12 -27 -15 -47 -10 -67 15 -52 14 -206 -1 -235 -15 -30 -19 -84 -6 -92 9 -5 7 -125 -2 -134 -3 -2 -1 -12 4 -22 7 -13 4 -22 -12 -36 -26 -24 -71 -122 -88 -192 -14 -59 -17 -182 -6 -201 10 -15 -11 -41 -34 -41 -36 0 -44 -24 -55 -177 -1 -22 -12 -40 -33 -58 -18 -15 -37 -43 -43 -63 -7 -23 -23 -45 -43 -57 -17 -11 -44 -44 -59 -73 -20 -37 -36 -54 -55 -58 -15 -4 -68 -48 -120 -101 -51 -51 -98 -93 -104 -93 -7 0 -41 -18 -77 -39 -36 -21 -91 -47 -121 -56 -30 -10 -64 -23 -75 -29 -11 -6 -47 -11 -80 -12 -37 0 -73 -7 -94 -18 -29 -16 -39 -16 -71 -6 -36 12 -82 10 -143 -5 -16 -4 -38 -3 -50 3 -47 21 -108 32 -185 32 -44 0 -84 4 -87 10 -3 5 -28 12 -55 16 -29 4 -56 14 -66 25 -9 11 -27 19 -39 19 -12 0 -34 13 -49 29 -20 20 -40 30 -72 34 -54 6 -122 55 -226 163 -40 42 -83 80 -95 85 -12 4 -33 30 -47 56 -13 26 -48 71 -76 98 -37 36 -64 75 -92 135 -35 75 -39 91 -34 135 5 44 2 56 -24 95 -36 53 -36 53 -10 88 18 25 19 32 8 85 -10 47 -10 62 1 79 9 14 10 23 2 31 -6 6 -11 52 -11 108 0 82 3 104 21 134 18 30 21 46 15 96 -3 33 -11 69 -17 81 -8 16 -8 30 1 59 10 30 11 45 2 64 -17 38 -15 54 14 92 19 25 28 51 32 96 3 39 13 72 25 89 16 22 18 30 8 42 -9 11 -8 23 5 55 9 23 13 52 10 65 -4 17 1 36 19 62 14 20 32 61 42 91 9 30 25 59 35 64 10 5 18 18 18 27 0 10 13 33 29 52 44 55 62 95 55 128 -5 26 -2 33 22 45 16 9 49 36 74 62 25 26 61 55 80 65 19 10 52 36 73 59 21 22 51 48 67 56 17 9 30 20 30 25 0 6 5 10 12 10 6 0 20 8 30 17 18 16 18 17 -5 42 -33 35 -130 225 -173 336 -45 115 -57 189 -57 350 0 134 12 236 32 273 6 11 11 54 11 96 0 66 3 77 22 90 30 21 42 20 99 -9 27 -13 56 -22 64 -19 8 3 28 1 45 -4 26 -10 32 -8 50 15 11 14 20 33 20 42 0 9 14 45 30 79 40 85 40 135 -2 204 -77 129 -153 178 -275 178 -93 0 -129 -17 -157 -76 -11 -21 -27 -55 -38 -75 -10 -20 -18 -47 -18 -60 -1 -13 -5 -67 -11 -119 -14 -132 -13 -178 6 -310 9 -63 19 -163 22 -223 4 -103 3 -109 -26 -170 -29 -59 -30 -65 -20 -122 5 -33 14 -100 20 -148 5 -49 13 -97 19 -107 11 -20 -4 -30 -46 -30 -14 0 -38 -7 -55 -15 -28 -15 -32 -14 -58 5 -16 11 -43 20 -61 20 -42 0 -63 13 -140 82 -75 69 -89 90 -90 136 0 18 -7 46 -15 61 -13 25 -12 37 2 99 10 41 23 74 32 77 8 3 40 -10 72 -30 31 -19 61 -35 66 -35 5 0 21 12 35 28 47 49 72 189 49 266 -6 17 -15 123 -21 236 -18 318 -1 415 104 578 61 95 109 127 210 141 94 12 87 71 -9 71 -65 0 -147 15 -200 36 -88 35 -108 46 -173 89 -68 44 -68 45 -80 105 -14 77 1 115 61 150 41 24 47 24 216 22 119 -2 179 -7 189 -15 10 -8 59 -13 136 -14 67 -2 182 -5 256 -9 143 -6 264 -7 450 -2 104 3 118 1 145 -18 29 -20 37 -21 185 -13 85 4 208 8 272 8 l117 1 42 50 c23 28 48 50 55 50 7 0 15 -13 19 -30 3 -16 16 -41 27 -55 l20 -26 39 36 c44 39 89 48 89 16 0 -10 7 -25 16 -32 14 -11 19 -10 34 9 23 29 80 31 80 4 0 -11 9 -27 20 -37 20 -18 21 -18 63 23 50 49 71 52 104 16 22 -24 28 -25 82 -19 75 9 135 -9 162 -47 11 -15 27 -28 34 -28 20 0 38 38 41 88 5 81 33 85 68 8 14 -30 30 -57 36 -61 18 -11 38 14 45 58 9 59 27 97 46 97 9 0 27 -17 41 -37z"/>
 <path d="M3631 6584 c-17 -12 -26 -13 -34 -5 -6 6 -45 11 -87 11 -63 0 -80 -3 -94 -19 -22 -24 -14 -41 46 -98 45 -42 79 -60 178 -94 67 -23 84 -23 100 -4 12 14 15 14 34 -3 28 -26 91 -35 107 -16 6 7 9 24 6 35 -5 18 1 15 31 -15 l38 -36 129 0 c199 0 252 -30 220 -123 -20 -56 -20 -116 1 -124 13 -5 13 -8 -4 -27 -52 -57 -51 -89 5 -135 l37 -30 -28 2 c-37 3 -74 -41 -58 -69 6 -12 7 -25 0 -39 -6 -14 -6 -40 0 -72 8 -48 7 -54 -24 -104 -31 -49 -45 -96 -59 -188 -6 -36 15 -71 42 -71 7 0 13 -5 13 -11 0 -6 -9 -8 -21 -4 -13 4 -27 0 -40 -11 -17 -16 -19 -32 -19 -179 0 -166 4 -185 42 -185 14 0 13 -4 -8 -26 -29 -28 -28 -51 6 -154 36 -109 147 -300 174 -300 7 0 21 9 31 20 27 30 36 24 17 -10 -16 -28 -16 -30 0 -46 16 -16 19 -16 57 10 23 16 47 26 56 22 9 -3 35 0 59 6 43 11 44 11 75 -24 34 -39 26 -37 211 -57 66 -7 88 -6 99 4 14 14 9 22 -82 130 -48 57 -96 73 -230 77 -117 3 -119 3 -144 33 -24 27 -25 34 -20 110 10 146 36 168 217 178 40 2 47 6 63 37 13 23 17 27 14 12 -4 -16 3 -33 23 -55 28 -31 28 -32 49 -13 19 17 21 30 21 120 0 56 -4 107 -9 115 -5 8 -22 20 -38 27 -24 10 -25 12 -7 13 24 1 54 30 54 53 0 9 6 29 14 45 8 15 24 62 36 103 27 91 82 175 164 253 l61 58 -62 58 c-46 43 -63 65 -63 85 0 42 28 156 79 321 17 55 35 118 41 140 l9 40 53 -3 c37 -2 59 2 73 12 20 16 20 16 0 31 -19 15 -19 16 6 38 34 29 48 66 38 95 -7 19 -16 22 -59 22 -43 0 -52 -3 -59 -23 -10 -27 -39 -53 -48 -43 -3 3 1 14 11 25 25 28 1 41 -89 48 -64 5 -78 3 -95 -12 -16 -14 -23 -16 -32 -7 -17 17 -53 15 -68 -3 -13 -16 -10 -52 11 -102 11 -27 11 -41 0 -85 -7 -29 -15 -75 -17 -103 -7 -81 -21 -168 -32 -195 -5 -14 -13 -60 -17 -102 -8 -88 -8 -88 -85 -58 -65 25 -101 25 -134 -1 -14 -11 -34 -19 -44 -17 -14 3 -17 13 -14 57 3 62 -9 83 -47 76 -24 -5 -24 -5 -7 7 67 47 66 45 66 123 0 41 5 77 10 80 6 3 10 21 10 40 0 19 -4 37 -10 40 -5 3 -10 26 -10 50 0 38 5 48 40 81 l40 38 -27 28 c-22 23 -24 28 -9 28 9 0 26 -4 36 -10 13 -7 21 -5 31 6 27 32 -7 43 -171 53 -134 8 -157 7 -172 -7 -10 -8 -18 -22 -19 -31 0 -12 -3 -10 -9 4 -4 12 -14 25 -21 31 -8 6 -118 16 -249 23 -319 15 -380 15 -409 -5z"/>
 <path d="M5925 6529 c-18 -16 -40 -49 -50 -75 -17 -44 -17 -47 1 -64 23 -22 39 -26 79 -16 17 4 39 9 51 11 11 3 33 14 47 25 25 20 26 23 11 45 -21 32 -1 42 33 15 24 -19 27 -19 45 -4 22 21 24 57 3 74 -10 8 -49 14 -102 15 -81 2 -88 0 -118 -26z"/>
 <path d="M4710 6435 l-55 -56 -6 -187 c-5 -176 -4 -188 14 -204 27 -25 52 -22 87 10 26 24 31 36 40 112 5 47 14 112 20 145 26 151 26 159 -11 199 l-34 37 -55 -56z"/>
 <path d="M6450 6444 c-11 -25 -20 -62 -20 -82 0 -21 -9 -62 -20 -92 -11 -30 -20 -65 -20 -78 0 -13 -5 -32 -11 -44 -15 -28 -3 -67 27 -80 21 -10 28 -8 46 10 39 38 77 168 94 318 6 47 4 52 -21 72 -40 32 -53 27 -75 -24z"/>
 <path d="M5394 6444 c-10 -14 -19 -38 -21 -52 -38 -285 -36 -321 19 -350 28 -16 72 -3 86 25 6 10 9 62 8 116 0 55 2 101 7 104 4 2 7 37 7 77 0 58 -4 76 -18 89 -28 26 -69 21 -88 -9z"/>
 <path d="M5722 6458 c-10 -14 -21 -60 -28 -123 -6 -53 -21 -144 -29 -175 -5 -18 0 -33 15 -53 44 -56 82 -19 92 92 4 42 12 112 18 156 10 76 10 81 -11 98 -25 20 -43 22 -57 5z"/>
 <path d="M6303 6448 c-11 -13 -13 -23 -39 -143 -19 -93 -20 -96 -29 -128 -5 -20 -3 -33 10 -47 33 -36 60 -20 77 47 49 194 55 239 33 263 -21 23 -38 25 -52 8z"/>
 <path d="M6159 6382 c-26 -21 -109 -52 -139 -52 -10 0 -22 -4 -25 -10 -3 -5 -27 -10 -52 -10 -38 0 -50 -5 -78 -33 -41 -41 -51 -75 -39 -136 12 -62 44 -74 106 -42 l43 23 52 -20 51 -19 38 21 c31 17 41 31 55 76 54 174 50 250 -12 202z"/>
 <path d="M4004 6257 c-9 -24 1 -34 68 -67 34 -17 72 -42 84 -55 13 -14 28 -25 33 -25 19 0 41 45 41 82 0 52 -25 66 -133 74 -74 6 -87 5 -93 -9z"/>
 <path d="M5229 6253 c-23 -28 -65 -135 -100 -253 -7 -25 -13 -47 -14 -50 -18 -60 -17 -61 11 -91 15 -16 33 -29 39 -29 6 0 31 20 55 45 40 41 45 51 46 95 0 37 7 56 22 73 18 19 22 35 22 96 0 109 -40 164 -81 114z"/>
 <path d="M5550 6210 c-23 -45 -19 -85 11 -100 22 -12 30 -1 45 62 19 81 -20 108 -56 38z"/>
 <path d="M3835 6150 c-11 -5 -30 -9 -43 -9 -72 -2 -207 -169 -240 -296 -16 -60 -25 -337 -13 -366 15 -33 33 -180 33 -264 1 -79 -14 -171 -32 -206 -32 -62 -100 -110 -125 -89 -19 16 -110 9 -110 -8 0 -7 20 -23 45 -36 52 -26 57 -45 18 -64 -50 -24 -23 -53 30 -34 47 16 58 2 38 -48 -13 -33 -14 -45 -5 -57 10 -12 19 -6 56 37 25 27 49 48 53 45 5 -3 12 -27 16 -53 11 -79 32 -103 55 -61 14 27 -10 120 -50 194 -33 60 -30 87 11 116 18 13 43 49 60 86 26 55 29 70 24 120 -11 103 -15 137 -26 193 -6 30 -12 80 -14 110 -3 30 -8 66 -13 80 -11 33 -8 190 5 262 13 68 51 165 84 213 12 19 39 43 58 52 45 22 179 30 223 13 75 -29 118 -51 150 -80 33 -29 47 -30 47 -3 0 23 -70 91 -118 114 -68 33 -184 54 -217 39z"/>
 <path d="M5580 6025 c-6 -8 -13 -34 -14 -57 -2 -36 -6 -44 -25 -46 -12 -2 -40 8 -61 22 -47 31 -102 43 -117 24 -19 -24 -20 -52 -1 -90 10 -21 18 -40 18 -44 0 -7 -46 -1 -71 10 -10 5 -28 -2 -48 -19 -36 -31 -38 -38 -11 -65 16 -16 33 -20 88 -20 56 0 79 -6 138 -34 76 -36 102 -65 120 -136 18 -67 1 -289 -25 -339 -17 -30 -13 -66 9 -86 17 -15 24 -16 50 -5 24 10 36 10 60 0 17 -7 48 -10 70 -7 77 10 112 -51 109 -188 -2 -87 3 -96 75 -132 59 -29 106 -70 106 -92 0 -30 28 -96 45 -106 17 -10 32 3 77 68 l17 25 54 -54 c59 -59 91 -68 121 -35 12 14 17 32 14 63 -3 40 -2 43 22 42 14 -1 45 -9 69 -18 61 -23 72 -11 64 64 -9 92 -1 99 53 51 26 -23 50 -41 55 -41 18 0 48 52 40 69 -4 9 -11 36 -15 60 l-7 43 28 -6 c77 -19 84 -19 110 5 52 49 79 144 64 225 -8 44 -7 48 28 87 34 38 36 44 36 108 0 64 -2 71 -32 101 -32 31 -33 31 -53 13 -11 -10 -30 -44 -41 -77 -22 -58 -31 -66 -59 -48 -13 8 -12 12 6 24 27 20 41 57 48 130 4 50 1 64 -20 97 -13 22 -30 39 -38 39 -10 0 -12 15 -9 68 4 64 3 69 -26 100 -33 35 -79 43 -101 17 -22 -26 -39 -18 -38 19 1 38 -23 77 -77 125 -57 50 -106 39 -152 -35 -12 -19 -13 -19 -24 1 -7 11 -29 37 -50 58 -37 37 -39 38 -66 24 -15 -9 -39 -27 -52 -41 -29 -31 -77 -35 -85 -8 -9 26 -52 65 -64 58 -5 -3 -19 -26 -31 -51 -12 -25 -26 -45 -32 -45 -6 0 -33 23 -59 51 -58 62 -85 63 -115 7 -24 -45 -40 -43 -93 8 -38 37 -63 42 -82 19z"/>
 <path d="M5255 5659 c-109 -58 -162 -113 -220 -229 -26 -51 -49 -103 -51 -114 -2 -12 -9 -48 -15 -81 -11 -55 -16 -415 -8 -494 2 -19 0 -36 -6 -37 -5 -2 -40 25 -77 60 -81 77 -134 105 -210 113 -68 7 -100 -9 -125 -62 -20 -41 -7 -82 39 -120 26 -22 39 -25 112 -25 123 0 192 -34 316 -155 76 -73 107 -96 153 -114 69 -25 75 -25 138 -5 47 16 75 40 122 108 10 14 36 35 58 47 35 17 54 20 137 16 120 -5 154 -12 244 -51 52 -22 81 -20 108 9 20 21 22 31 17 76 -7 57 -36 102 -94 146 -35 27 -42 28 -144 28 l-108 0 -91 -47 c-51 -27 -95 -46 -100 -43 -14 8 -19 99 -10 165 5 36 16 103 24 150 38 212 45 258 45 301 1 26 8 64 17 85 11 27 15 60 12 112 l-4 75 -57 53 c-57 53 -59 54 -120 54 -44 0 -74 -6 -102 -21z m35 -101 c18 -30 25 -33 77 -38 53 -5 58 -7 61 -30 2 -14 8 -35 14 -47 14 -28 4 -53 -22 -53 -14 0 -20 7 -20 23 0 28 -36 87 -53 87 -15 0 -69 -55 -86 -87 -6 -12 -11 -40 -11 -62 0 -30 -4 -41 -15 -41 -9 0 -15 9 -15 24 0 13 -7 29 -15 36 -12 10 -19 7 -39 -15 -14 -15 -29 -24 -35 -21 -17 11 0 41 37 66 66 43 102 82 102 111 0 33 -19 50 -48 42 -30 -8 -28 3 6 21 37 21 40 20 62 -16z m-175 -598 c-3 -19 -6 -45 -6 -58 -1 -19 -6 -23 -28 -20 -32 4 -39 39 -21 104 12 43 12 43 36 26 21 -14 24 -23 19 -52z m201 -35 c-1 -46 -3 -50 -27 -53 -22 -3 -27 1 -27 20 -1 13 -4 38 -8 55 -5 27 -2 36 17 52 23 18 23 18 34 -3 7 -11 11 -43 11 -71z"/>
 <path d="M3895 5447 c-29 -45 12 -102 86 -118 34 -8 45 -7 58 5 13 14 13 18 -4 36 -11 12 -25 18 -36 15 -21 -7 -49 19 -49 45 0 11 -9 24 -20 30 -16 8 -22 6 -35 -13z"/>
 <path d="M3864 5255 c-63 -96 -26 -393 72 -586 29 -58 47 -68 74 -44 11 10 20 13 20 8 0 -6 -7 -16 -15 -23 -8 -7 -15 -23 -15 -36 0 -47 98 -171 140 -178 14 -2 33 -7 43 -11 10 -4 28 0 43 10 24 15 25 18 9 35 -14 16 -14 18 0 23 8 4 15 11 15 17 0 15 -60 139 -71 145 -5 4 -7 10 -5 14 3 4 -3 23 -13 42 -10 19 -26 61 -36 94 -49 168 -55 202 -55 311 0 102 -2 112 -23 132 -13 12 -30 22 -38 22 -8 0 -38 11 -67 25 -30 14 -56 25 -58 25 -2 0 -11 -11 -20 -25z"/>
 <path d="M5674 5067 c-3 -9 -3 -21 1 -27 8 -13 -12 -40 -30 -40 -8 0 -28 12 -45 26 -36 31 -42 27 -60 -38 -17 -65 -4 -80 59 -74 155 17 233 66 196 122 -14 21 -21 24 -46 19 -22 -5 -36 -2 -49 10 -18 16 -20 16 -26 2z"/>
 <path d="M5759 4891 c-20 -16 -22 -21 -10 -35 19 -23 55 -16 59 10 5 34 -21 48 -49 25z"/>
 <path d="M5522 4504 c-28 -19 -28 -32 0 -61 l22 -24 -34 15 c-33 13 -36 13 -75 -14 -58 -41 -94 -82 -101 -116 -5 -26 -1 -35 21 -53 15 -11 31 -21 35 -21 19 0 75 48 78 68 4 25 6 26 30 11 14 -9 27 -5 67 20 58 37 77 65 64 99 -14 38 -11 46 12 26 22 -20 51 -11 57 19 8 40 -129 64 -176 31z"/>
 <path d="M4555 4390 c-11 -12 -20 -34 -21 -50 -3 -39 -11 -50 -38 -50 -15 0 -27 9 -34 25 -6 14 -16 25 -22 25 -19 0 -22 -28 -6 -59 22 -42 20 -51 -13 -51 -23 0 -36 10 -65 50 -39 54 -50 59 -77 34 -14 -13 -16 -21 -8 -42 6 -15 17 -34 24 -42 16 -17 9 -33 -19 -43 -14 -6 -31 6 -72 49 -53 55 -55 56 -74 39 -26 -24 -25 -46 5 -106 20 -39 23 -54 15 -69 -6 -11 -15 -20 -21 -20 -13 0 -52 20 -59 30 -3 4 -27 24 -54 45 -44 34 -51 36 -73 24 -37 -20 -44 -40 -28 -85 29 -80 13 -100 -42 -55 -47 39 -76 39 -114 2 -37 -37 -36 -54 6 -120 45 -71 32 -91 -36 -56 -28 15 -30 15 -54 -11 -33 -35 -32 -44 10 -84 21 -20 35 -44 35 -58 0 -26 0 -26 -87 -1 -40 12 -44 11 -68 -11 -14 -13 -25 -33 -25 -45 0 -27 29 -55 57 -55 11 0 28 -9 37 -19 23 -25 7 -35 -54 -32 -34 1 -53 -4 -71 -18 l-24 -19 24 -26 c14 -14 29 -26 34 -26 5 0 24 -7 43 -16 65 -31 32 -67 -70 -76 -16 -2 -34 -11 -40 -21 -16 -26 33 -67 78 -67 37 0 61 -21 52 -45 -3 -8 -14 -15 -25 -15 -30 0 -132 -28 -147 -40 -7 -6 -16 -25 -20 -43 -5 -26 -2 -35 20 -54 22 -18 39 -23 86 -23 61 0 94 -17 84 -44 -5 -13 -25 -18 -116 -29 -31 -4 -68 -33 -68 -53 0 -25 45 -43 113 -46 61 -3 67 -5 67 -24 0 -21 -32 -33 -152 -59 -28 -5 -58 -48 -58 -82 0 -10 7 -29 16 -41 14 -21 23 -23 87 -20 66 3 72 1 72 -17 0 -14 -15 -28 -48 -46 -27 -14 -60 -38 -75 -52 -22 -23 -24 -28 -12 -42 11 -13 24 -16 57 -11 41 5 43 4 43 -19 0 -14 -3 -25 -8 -25 -4 0 -31 -21 -60 -46 -44 -39 -50 -48 -41 -65 9 -17 17 -19 74 -13 81 8 86 -7 20 -55 -51 -37 -69 -63 -60 -91 11 -34 39 -42 90 -25 25 9 50 13 55 10 20 -12 9 -48 -25 -86 -19 -22 -35 -47 -35 -58 0 -19 42 -71 58 -71 6 0 24 16 41 35 34 40 81 49 81 16 0 -10 -7 -24 -14 -31 -8 -6 -22 -35 -30 -63 -13 -45 -13 -55 -1 -73 23 -35 59 -38 113 -9 53 29 63 20 43 -37 -16 -45 -14 -73 7 -91 25 -22 48 -21 83 4 32 22 66 21 60 -2 -19 -66 -8 -112 29 -122 15 -4 29 5 53 34 21 24 43 39 57 39 21 0 22 -3 16 -50 -6 -45 -4 -53 18 -75 15 -15 31 -22 41 -19 20 8 45 56 45 88 0 13 7 32 16 41 26 25 44 1 44 -57 0 -41 5 -54 29 -79 48 -47 93 -33 125 40 24 52 46 45 46 -15 0 -34 6 -51 29 -76 l28 -32 27 27 c19 19 24 31 18 43 -9 16 0 99 12 111 13 13 40 -13 47 -45 9 -43 42 -96 63 -100 29 -6 48 18 42 52 -8 36 -8 88 0 95 2 3 31 -21 63 -53 47 -47 63 -57 86 -54 41 4 52 28 36 76 -8 22 -10 45 -7 51 12 19 41 12 66 -14 40 -42 85 -27 60 20 -29 55 15 72 76 30 49 -33 60 -32 100 12 37 40 42 64 19 83 -26 22 -55 77 -49 94 9 23 42 20 102 -9 61 -29 80 -31 89 -8 4 11 -5 26 -30 47 -26 22 -37 39 -37 59 0 32 23 36 86 13 42 -14 77 -8 87 17 6 16 -26 50 -56 60 -12 5 -17 15 -15 29 3 21 9 23 68 26 102 5 129 51 48 82 -67 25 -79 33 -76 54 2 16 15 22 63 31 33 6 74 19 92 28 75 40 61 96 -29 117 -70 17 -88 27 -88 51 0 25 36 39 100 39 42 0 51 4 79 35 17 20 31 42 31 49 0 21 -38 49 -59 43 -22 -5 -61 18 -61 36 0 7 21 23 48 37 53 28 56 41 12 53 -46 12 -39 41 13 61 24 9 55 28 68 42 l24 26 -28 24 c-18 15 -41 24 -63 24 -29 0 -34 3 -34 24 0 19 7 25 33 30 77 16 87 19 98 32 14 17 -5 44 -31 44 -54 0 -68 38 -22 60 36 19 72 51 72 65 0 20 -35 45 -63 45 -14 0 -29 5 -33 11 -4 7 -21 9 -46 5 -30 -5 -40 -3 -45 10 -7 20 9 49 28 50 63 4 115 20 142 44 28 25 30 30 20 53 -12 25 -14 26 -83 20 -96 -8 -95 0 10 86 32 27 33 31 22 56 -11 23 -17 26 -40 20 -15 -3 -44 -9 -64 -12 -33 -4 -38 -3 -38 16 0 11 20 43 45 71 49 56 55 78 26 104 -18 17 -20 17 -40 -3 -45 -45 -111 -63 -111 -29 0 6 20 37 43 67 72 92 84 131 48 150 -14 8 -30 3 -72 -24 -65 -41 -99 -46 -99 -12 0 13 11 38 25 57 31 42 31 60 1 89 l-25 23 -30 -21 c-17 -12 -51 -31 -77 -42 -56 -25 -72 -16 -56 30 6 17 14 58 18 90 6 54 4 60 -15 71 -27 14 -42 3 -77 -52 -14 -22 -32 -38 -43 -38 -18 0 -19 6 -14 73 5 68 4 73 -21 97 -35 32 -52 22 -89 -53 -26 -52 -56 -75 -58 -44 0 6 -1 38 -2 71 -2 51 -6 61 -28 78 -33 25 -47 18 -89 -40 -17 -24 -36 -42 -42 -40 -6 2 -18 24 -27 48 -12 33 -22 45 -36 45 -17 0 -21 -9 -25 -65 -5 -60 -7 -65 -29 -65 -24 0 -23 -2 -66 119 -17 47 -46 86 -63 86 -5 0 -17 -9 -27 -20z m312 -522 c52 -19 120 -68 156 -111 44 -54 131 -273 143 -361 4 -25 15 -53 25 -62 17 -15 25 -13 126 42 59 31 119 63 132 70 26 14 47 10 55 -12 13 -35 1 -42 -204 -122 -80 -31 -115 -64 -99 -94 9 -17 17 -19 53 -14 90 14 134 25 190 45 42 16 62 19 70 11 7 -7 7 -16 1 -26 -14 -22 -46 -32 -263 -86 -50 -13 -68 -36 -47 -64 11 -16 26 -19 92 -18 43 1 127 8 186 16 59 7 110 12 112 9 3 -2 5 -10 5 -17 0 -19 -62 -35 -178 -45 -235 -21 -233 -20 -237 -87 -2 -20 -12 -71 -23 -112 -11 -41 -23 -97 -27 -125 -4 -27 -17 -70 -30 -95 -36 -72 -39 -97 -14 -117 66 -55 135 -134 155 -178 32 -68 30 -116 -7 -195 -61 -129 -107 -163 -243 -182 -84 -12 -78 -12 -140 2 -63 13 -90 31 -121 80 -27 42 -44 48 -92 29 -62 -24 -187 -37 -252 -25 -39 7 -176 73 -193 93 -12 15 -44 17 -53 3 -13 -22 -92 -54 -148 -61 -51 -6 -64 -4 -105 19 -57 30 -151 127 -158 162 -3 14 -9 36 -14 50 -13 40 -11 240 2 279 27 79 99 121 210 121 41 0 60 4 64 14 3 8 7 52 9 98 2 45 9 148 16 227 13 164 14 161 -66 182 -22 6 -62 20 -89 30 -27 10 -60 19 -75 19 -23 0 -91 33 -91 44 0 18 15 36 32 36 10 0 52 -15 91 -34 158 -74 205 -81 240 -34 19 25 19 28 4 51 -22 33 -125 111 -206 155 -74 40 -81 47 -74 73 11 39 83 12 174 -66 64 -56 107 -76 132 -63 23 12 21 31 -7 59 -77 77 -135 128 -161 142 -43 22 -67 52 -63 79 6 45 36 32 130 -57 95 -90 126 -112 152 -102 8 3 29 34 47 69 53 105 79 130 197 186 128 62 200 83 307 92 88 7 97 6 172 -22z"/>
 <path d="M4615 3801 c-55 -14 -149 -63 -241 -127 -93 -64 -126 -99 -162 -169 -19 -39 -19 -42 -4 -68 16 -27 16 -28 -13 -52 l-30 -25 38 -34 c20 -18 37 -36 37 -40 0 -3 -17 -6 -38 -6 -38 0 -72 -23 -72 -47 0 -19 40 -46 77 -52 20 -3 38 -12 41 -20 4 -12 -6 -13 -56 -8 -74 8 -83 0 -91 -86 -8 -90 -3 -386 8 -427 5 -19 14 -64 19 -100 36 -243 95 -340 248 -412 59 -28 71 -30 152 -26 74 3 97 8 157 37 98 48 194 156 255 286 18 39 47 102 65 141 19 39 36 89 40 110 3 22 12 55 20 74 15 42 36 149 38 205 2 36 -1 41 -30 55 -32 15 -48 45 -18 34 17 -7 41 9 55 37 8 14 3 21 -25 38 -38 22 -39 48 -2 53 32 4 28 40 -5 56 -34 16 -35 25 -3 54 24 23 24 23 11 108 -17 113 -72 224 -152 304 -97 97 -208 134 -319 107z m-43 -438 c20 -21 38 -47 40 -57 1 -10 11 -24 21 -30 15 -9 23 -5 50 27 18 21 39 39 47 41 8 2 28 6 43 11 23 6 34 3 59 -21 42 -40 74 -110 80 -171 4 -47 3 -53 -13 -53 -14 0 -19 7 -19 29 0 67 -71 171 -117 171 -35 0 -86 -52 -107 -109 -27 -77 -18 -108 65 -221 18 -24 20 -32 9 -45 -7 -8 -25 -15 -41 -15 -39 0 -199 41 -199 52 0 4 25 40 55 80 54 70 55 73 55 139 0 59 -4 73 -32 115 -21 31 -42 50 -56 52 -41 6 -102 -67 -102 -123 0 -14 -6 -25 -13 -25 -10 0 -13 15 -12 58 2 81 20 113 75 133 52 18 61 15 112 -38z m-116 -645 c1 -29 3 -64 5 -77 3 -20 -2 -26 -25 -32 -44 -12 -53 2 -51 77 1 68 10 84 50 84 17 0 20 -7 21 -52z m238 -3 c18 -13 18 -18 6 -54 -7 -21 -10 -44 -6 -50 4 -5 -2 -19 -13 -30 -19 -19 -22 -19 -50 -5 -32 16 -38 28 -21 39 5 3 17 31 26 61 16 56 26 63 58 39z"/>
 <path d="M3835 2611 c-22 -10 -46 -25 -53 -34 -16 -19 -32 -75 -39 -134 -8 -72 49 -217 103 -264 37 -32 111 -69 138 -69 75 0 185 106 131 126 -8 4 -26 -1 -40 -10 -34 -22 -112 -21 -151 3 -58 35 -92 176 -63 260 13 37 53 61 102 61 53 0 64 22 27 54 -38 32 -96 34 -155 7z"/>
 <path d="M3931 2491 c-27 -25 -31 -36 -31 -79 0 -85 80 -182 134 -163 34 13 68 71 62 106 -25 153 -90 206 -165 136z"/>
 <path d="M5019 2424 c-12 -14 -8 -22 33 -58 44 -38 66 -81 59 -115 -1 -7 3 -27 10 -43 10 -24 9 -34 -6 -62 -27 -50 -71 -69 -144 -64 -48 3 -70 11 -106 37 -47 34 -61 33 -74 -3 -26 -66 120 -173 187 -137 11 6 22 8 25 5 11 -11 107 50 133 84 29 38 64 125 64 159 0 40 -33 97 -89 156 -59 61 -71 66 -92 41z"/>
 <path d="M4948 2323 c-18 -21 -44 -55 -57 -76 -23 -37 -23 -37 -4 -70 10 -17 35 -41 55 -52 47 -25 83 -14 116 35 33 49 24 121 -21 168 -17 17 -36 32 -43 32 -6 0 -27 -17 -46 -37z"/>
 <path d="M1855 2684 c-59 -39 -60 -41 -41 -68 24 -37 67 -35 112 7 32 29 34 35 25 60 -14 35 -44 35 -96 1z"/>
 <path d="M1673 2585 c-43 -26 -43 -26 -28 -56 20 -37 62 -39 102 -5 24 21 26 27 18 52 -14 38 -40 40 -92 9z"/>
 <path d="M2182 2038 c-65 -53 -115 -102 -118 -115 -8 -28 11 -53 40 -53 27 0 228 170 240 204 11 28 -6 56 -33 56 -9 0 -67 -41 -129 -92z"/>
 <path d="M6711 1371 c-8 -14 -4 -30 14 -67 41 -81 129 -216 148 -228 22 -14 51 3 55 32 3 22 -114 228 -150 264 -23 23 -55 23 -67 -1z"/>
 <path d="M5675 966 c-14 -21 -13 -34 13 -160 36 -168 67 -213 107 -152 15 22 14 34 -14 157 -40 174 -68 214 -106 155z"/>
 </g>

</svg>